HIERARCHY
ROOT Hips
{
	OFFSET 0.000000 0.000000 0.000000
	CHANNELS 6 Xposition Yposition Zposition Xrotation Yrotation Zrotation
	JOINT LeftUpLeg_virtual
	{
		OFFSET 0.000000 0.000000 0.000000
		CHANNELS 3 Xrotation Yrotation Zrotation
		JOINT LeftUpLeg
		{
			OFFSET 15.427100 -6.655098 0.678600
			CHANNELS 3 Xrotation Yrotation Zrotation
			JOINT LeftLeg
			{
				OFFSET 4.081073 -39.591068 13.024000
				CHANNELS 3 Xrotation Yrotation Zrotation
				JOINT LeftFoot
				{
					OFFSET -4.081074 -37.707932 -15.979700
					CHANNELS 3 Xrotation Yrotation Zrotation
					JOINT LeftToeBase
					{
						OFFSET 5.346399 -15.068900 20.645000
						CHANNELS 3 Xrotation Yrotation Zrotation
						JOINT LeftToe_End
						{
							OFFSET 2.754700 0.931300 11.300900
							CHANNELS 3 Xrotation Yrotation Zrotation
							End Site
							{
								OFFSET 0 0 0
							}
						}
					}
				}
			}
		}
	}
	JOINT RightUpLeg_virtual
	{
		OFFSET 0.000000 0.000000 0.000000
		CHANNELS 3 Xrotation Yrotation Zrotation
		JOINT RightUpLeg
		{
			OFFSET -15.569500 -6.655098 0.678600
			CHANNELS 3 Xrotation Yrotation Zrotation
			JOINT RightLeg
			{
				OFFSET -4.081825 -39.591045 13.023800
				CHANNELS 3 Xrotation Yrotation Zrotation
				JOINT RightFoot
				{
					OFFSET 4.081824 -37.707954 -15.979600
					CHANNELS 3 Xrotation Yrotation Zrotation
					JOINT RightToeBase
					{
						OFFSET -5.346400 -15.068900 20.645000
						CHANNELS 3 Xrotation Yrotation Zrotation
						JOINT RightToe_End
						{
							OFFSET -2.754700 0.931300 11.300900
							CHANNELS 3 Xrotation Yrotation Zrotation
							End Site
							{
								OFFSET 0 0 0
							}
						}
					}
				}
			}
		}
	}
	JOINT Spine_virtual
	{
		OFFSET 0.000000 0.000000 0.000000
		CHANNELS 3 Xrotation Yrotation Zrotation
		JOINT Spine
		{
			OFFSET -0.279200 12.230698 -2.892100
			CHANNELS 3 Xrotation Yrotation Zrotation
			JOINT Spine1
			{
				OFFSET -0.232667 10.192268 -1.242267
				CHANNELS 3 Xrotation Yrotation Zrotation
				JOINT Spine1_split
				{
					OFFSET -0.232667 10.192268 -1.242267
					CHANNELS 3 Xrotation Yrotation Zrotation
					JOINT Spine2
					{
						OFFSET -0.232667 10.192268 -1.242267
						CHANNELS 3 Xrotation Yrotation Zrotation
						JOINT Neck_virtual
						{
							OFFSET 0.000000 0.000000 0.000000
							CHANNELS 3 Xrotation Yrotation Zrotation
							JOINT Neck
							{
								OFFSET -0.418800 17.814194 8.416900
								CHANNELS 3 Xrotation Yrotation Zrotation
								JOINT Head
								{
									OFFSET 0.000000 7.031097 3.806800
									CHANNELS 3 Xrotation Yrotation Zrotation
									JOINT HeadTop_End
									{
										OFFSET 0.000000 24.646606 12.978600
										CHANNELS 3 Xrotation Yrotation Zrotation
										End Site
										{
											OFFSET 0 0 0
										}
									}
								}
							}
						}
						JOINT LeftShoulder_virtual
						{
							OFFSET 0.000000 0.000000 0.000000
							CHANNELS 3 Xrotation Yrotation Zrotation
							JOINT LeftShoulder
							{
								OFFSET 8.476499 7.247704 -3.868750
								CHANNELS 3 Xrotation Yrotation Zrotation
								JOINT LeftShoulder_split
								{
									OFFSET 8.476499 7.247704 -3.868750
									CHANNELS 3 Xrotation Yrotation Zrotation
									JOINT LeftArm
									{
										OFFSET 9.308998 -2.777710 0.208600
										CHANNELS 3 Xrotation Yrotation Zrotation
										JOINT LeftForeArm
										{
											OFFSET 29.972298 0.000000 0.000000
											CHANNELS 3 Xrotation Yrotation Zrotation
											JOINT LeftHand
											{
												OFFSET 26.026505 0.000000 0.000000
												CHANNELS 3 Xrotation Yrotation Zrotation
												End Site
												{
													OFFSET 0 0 0
												}
											}
										}
									}
								}
							}
						}
						JOINT RightShoulder_virtual
						{
							OFFSET 0.000000 0.000000 0.000000
							CHANNELS 3 Xrotation Yrotation Zrotation
							JOINT RightShoulder
							{
								OFFSET -7.570500 7.247704 -3.868750
								CHANNELS 3 Xrotation Yrotation Zrotation
								JOINT RightShoulder_split
								{
									OFFSET -7.570500 7.247704 -3.868750
									CHANNELS 3 Xrotation Yrotation Zrotation
									JOINT RightArm
									{
										OFFSET -9.308998 -2.777710 0.208500
										CHANNELS 3 Xrotation Yrotation Zrotation
										JOINT RightForeArm
										{
											OFFSET -29.972300 0.000000 0.000000
											CHANNELS 3 Xrotation Yrotation Zrotation
											JOINT RightHand
											{
												OFFSET -26.026505 0.000000 0.000000
												CHANNELS 3 Xrotation Yrotation Zrotation
												End Site
												{
													OFFSET 0 0 0
												}
											}
										}
									}
								}
							}
						}
					}
				}
			}
		}
	}
}
MOTION
Frames: 5
Frame Time: 0.03333333
-6.413166 69.668030 6.869663 0.000000 0.000000 0.000000 14.638975 -46.163159 17.243610 -55.563548 24.754262 38.096316 37.406030 -24.700870 -1.232946 0.536507 -1.950418 -12.339105 -4.508747 -5.983150 0.110015 0.000000 0.000000 0.000000 12.147112 -41.416898 16.501788 -8.210714 -4.915877 -46.693523 44.010081 9.702810 0.024975 -46.401758 -14.553258 27.820918 7.722219 3.131897 2.535473 0.000000 0.000000 0.000000 13.284928 -42.725780 16.918223 13.303250 -6.366412 0.386613 26.063023 -1.959473 -1.455936 -0.161632 -3.127589 1.841805 0.000000 0.000000 0.000000 12.919009 -1.847636 -2.079018 1.942607 3.374800 12.851767 15.554660 0.744382 -6.182820 0.000000 0.000000 0.000000 15.188391 -2.664915 -2.992549 3.437736 -28.390438 1.940415 -0.931745 -4.055555 0.155616 -32.662928 -13.495504 -32.526614 -5.576384 -15.406887 1.179502 0.000000 0.000000 0.000000 14.079758 -1.246862 -1.977035 2.419547 14.453239 18.513737 9.779351 1.443892 2.897593 -10.814075 -9.536435 13.254937 -73.291140 83.064376 70.805115 0.000000 0.000000 0.000000 
-5.692669 69.693108 6.315311 0.000000 0.000000 0.000000 10.623062 -44.802909 13.647429 -56.545722 23.972222 37.757583 39.071581 -25.098509 -0.881325 2.503666 -3.648559 -11.381820 -4.218138 -5.767494 -0.187242 0.000000 0.000000 0.000000 8.223614 -40.019772 13.120169 -4.755251 -6.361486 -45.390681 42.046624 9.085499 -0.189003 -45.080177 -15.192897 28.373705 7.455817 2.941969 2.743781 0.000000 0.000000 0.000000 9.545787 -42.643835 14.014818 13.105431 -6.063604 0.611667 24.710868 -1.099138 -1.582552 0.366237 -3.239192 2.226457 0.000000 0.000000 0.000000 12.152663 -0.872175 -2.242468 1.104348 4.311409 11.228477 14.221704 1.784397 -8.072663 0.000000 0.000000 0.000000 14.227240 -1.806059 -3.074566 3.316318 -28.811476 2.039739 -0.398729 -3.367111 -0.274259 -30.729670 -9.839768 -30.528606 -6.669652 -16.617741 0.152681 0.000000 0.000000 0.000000 13.216415 -0.458625 -2.139919 2.074385 14.300263 19.415164 9.205982 1.338857 3.645978 -10.642040 -12.147567 10.910675 -77.610572 86.172699 75.427077 0.000000 0.000000 0.000000 
-5.129379 69.597572 5.634556 0.000000 0.000000 0.000000 6.908210 -43.395105 10.405012 -57.896420 23.516589 38.024906 40.682208 -25.124701 -0.712906 4.427368 -5.008709 -10.155917 -3.722575 -5.570441 -0.560365 0.000000 0.000000 0.000000 4.763539 -38.742612 10.178571 -2.110535 -7.735238 -43.990971 40.768897 8.530249 -0.465144 -43.751555 -15.657063 28.912406 6.805762 2.771767 2.960372 0.000000 0.000000 0.000000 5.966039 -42.180694 11.251450 12.736806 -5.614807 1.134166 23.472768 -0.337059 -1.634167 0.942838 -3.362253 2.382466 0.000000 0.000000 0.000000 11.363499 0.028739 -2.246346 -0.913041 5.230446 8.883899 12.569962 3.090272 -9.869270 0.000000 0.000000 0.000000 13.332699 -0.964003 -2.979726 3.123494 -29.057179 2.094472 0.451598 -2.658420 -0.637323 -29.912168 -6.444116 -29.255524 -7.970622 -18.493256 -1.161001 0.000000 0.000000 0.000000 12.332205 0.251344 -2.150193 1.791902 13.775545 19.821610 8.685528 1.597392 4.098455 -10.248254 -15.038362 10.111721 -76.882262 88.609424 75.204228 0.000000 0.000000 0.000000 
-4.750635 69.389809 5.034279 0.000000 0.000000 0.000000 3.684786 -42.610425 7.615934 -59.398057 23.231273 38.927738 42.262588 -24.859855 -0.622126 6.077330 -5.997320 -8.949508 -3.255165 -5.427565 -0.931051 0.000000 0.000000 0.000000 2.045272 -37.987217 7.740945 -0.476780 -8.756476 -42.598493 40.089116 8.201090 -0.776168 -42.364477 -15.773217 29.541675 5.686844 2.653964 3.071000 0.000000 0.000000 0.000000 3.075611 -41.630457 8.795887 12.424309 -5.101513 1.848413 22.201880 0.262809 -1.663064 1.420366 -3.204188 2.259106 0.000000 0.000000 0.000000 10.394546 0.783723 -2.173494 -3.776705 6.075335 6.741529 10.805429 4.640763 -11.356955 0.000000 0.000000 0.000000 12.324067 -0.190777 -2.776735 2.931816 -29.219023 2.132674 1.655640 -2.190250 -0.665403 -29.665615 -3.761267 -28.779999 -9.330455 -21.126335 -2.653891 0.000000 0.000000 0.000000 11.280143 0.846723 -2.055786 1.612825 12.929114 19.484404 8.233066 2.207247 4.023667 -9.747013 -17.307209 11.253348 11.625922 89.171262 -12.710728 0.000000 0.000000 0.000000 
-4.493506 69.193985 4.492535 0.000000 0.000000 0.000000 1.202280 -42.853570 5.353250 -60.769935 22.860730 40.237611 44.036832 -24.413511 -0.421071 7.076843 -6.544372 -7.950432 -2.707126 -5.378412 -1.182425 0.000000 0.000000 0.000000 0.012676 -38.144919 5.734488 0.023669 -9.256284 -41.322446 39.893714 8.139374 -1.075380 -40.828514 -15.465010 30.304453 4.241538 2.623904 3.054349 0.000000 0.000000 0.000000 1.161537 -41.349234 6.778249 12.340095 -4.478710 2.652367 20.784701 0.753999 -1.751876 1.835298 -2.884253 1.642676 0.000000 0.000000 0.000000 9.120794 1.429292 -2.150880 -6.825015 6.817827 5.377785 9.215353 6.332489 -12.407659 0.000000 0.000000 0.000000 11.084496 0.517896 -2.623939 2.766782 -29.243926 2.382914 2.789585 -1.776291 -0.843114 -29.164201 -1.933331 -29.005758 -10.654623 -24.328406 -4.217436 0.000000 0.000000 0.000000 9.943272 1.396554 -1.996813 1.474181 11.669729 18.204220 7.690730 2.934032 3.564736 -9.023854 -18.331091 13.960999 15.790984 87.472682 -16.358291 0.000000 0.000000 0.000000 
